PathFileType	4	(X/Y/Z)	9_coords_data.trc
DataRate	CameraRate	NumFrames	NumMarkers	Units	OrigDataRate	OrigDataStartFrame	OrigNumFrames
30.0	30.0	4	21	m	30.0	1	48
Frame#	Time	THUMB_TIP	THUMB_IP	THUMB_MCP	THUMB_CMC	INDEX_TIP	INDEX_DIP	INDEX_PIP	INDEX_MCP	MIDDLE_TIP	MIDDLE_DIP	MIDDLE_PIP	MIDDLE_MCP	RING_TIP	RING_DIP	RING_PIP	RING_MCP	PINKY_TIP	PINKY_DIP	PINKY_PIP	PINKY_MCP	WRIST
X1	Y1	Z1	X2	Y2	Z2	X3	Y3	Z3	X4	Y4	Z4	X5	Y5	Z5	X6	Y6	Z6	X7	Y7	Z7	X8	Y8	Z8	X9	Y9	Z9	X10	Y10	Z10	X11	Y11	Z11	X12	Y12	Z12	X13	Y13	Z13	X14	Y14	Z14	X15	Y15	Z15	X16	Y16	Z16	X17	Y17	Z17	X18	Y18	Z18	X19	Y19	Z19	X20	Y20	Z20	X21	Y21	Z21
0	0.0	-0.034169498443603515	-0.08623919677734375	1.0356500244140625	-0.03316730117797852	-0.061373798370361325	1.0461600341796875	-0.03735559844970703	-0.03884000015258789	1.06777001953125	-0.04970220184326172	-0.006599790096282959	1.0929000244140625	-0.021722900390625	0.000515992999076843	1.0603499755859376	-0.016066600799560547	0.00288043999671936	1.0426099853515625	-0.01829129981994629	0.003236599922180176	1.019	-0.050397899627685545	-0.013847399711608886	1.029199951171875	-0.04104010009765625	0.005490660190582275	1.0743499755859376	-0.026759899139404297	0.01626420021057129	1.0601800537109376	-0.019061199188232424	0.024475900650024415	1.0326700439453125	-0.05681039810180664	0.008007100105285644	1.02777001953125	-0.047403999328613285	0.014062999725341797	1.081780029296875	-0.034472599029541015	0.027797000885009766	1.0701300048828124	-0.02840139961242676	0.04101279830932617	1.04843994140625	-0.06770059967041016	0.028245899200439455	1.037510009765625	-0.05039459991455078	0.028210100173950196	1.0797900390625	-0.03750130081176758	0.04045970153808594	1.073050048828125	-0.04150439834594727	0.054908699035644534	1.0604599609375	-0.07263510131835937	0.04714250183105469	1.052989990234375	-0.08157579803466797	0.002905920028686523	1.117780029296875
1	0.03333333333333333	-0.033577301025390624	-0.0866604995727539	1.03643994140625	-0.03221530151367188	-0.06156380081176758	1.04693994140625	-0.03771920013427734	-0.03957590103149414	1.06793994140625	-0.04732120132446289	-0.007124249935150146	1.0908800048828124	-0.02441939926147461	-0.0016185699701309199	1.0586700439453125	-0.0162731990814209	0.003058680057525634	1.04147998046875	-0.0172593994140625	0.004063139915466309	1.01797998046875	-0.04975360107421875	-0.013794899940490723	1.02956005859375	-0.03811299896240234	0.00480024003982544	1.0711800537109375	-0.025519599914550783	0.01583090019226074	1.0598900146484376	-0.01906209945678711	0.02401519966125488	1.0338800048828125	-0.05765679931640625	0.009097720146179199	1.0282900390625	-0.04823789978027344	0.01478559970855713	1.0790799560546875	-0.034239898681640624	0.02800149917602539	1.069510009765625	-0.028612899780273437	0.04113710021972656	1.0473399658203124	-0.0662696990966797	0.02982589912414551	1.039199951171875	-0.0509723014831543	0.027166900634765626	1.0810699462890625	-0.03967079925537109	0.04110120010375977	1.0755999755859376	-0.04118849945068359	0.05371039962768555	1.061699951171875	-0.07202909851074218	0.04700659942626953	1.0553299560546876	-0.07921209716796875	0.002074100017547607	1.114300048828125
2	0.06666666666666667	-0.03394390106201172	-0.0867782974243164	1.03647998046875	-0.03255429840087891	-0.06166059875488281	1.047	-0.03793199920654297	-0.039676700592041016	1.06797998046875	-0.04763700103759766	-0.0077398700714111325	1.091010009765625	-0.024280500411987305	-0.001617300033569336	1.0585	-0.016543899536132813	0.002972579956054687	1.0411500244140626	-0.017486700057983397	0.0038496699333190917	1.0178200073242187	-0.049981998443603515	-0.013970999717712403	1.029739990234375	-0.038124099731445316	0.0048189997673034664	1.0710400390625	-0.02576020050048828	0.015742600440979002	1.0596400146484375	-0.01923200035095215	0.02394490051269531	1.0338599853515624	-0.0578661994934082	0.009028389930725097	1.0281600341796875	-0.04837599945068359	0.014723699569702148	1.07902001953125	-0.03448600006103516	0.027846399307250976	1.06925	-0.0288218994140625	0.04103720092773438	1.0470899658203126	-0.06656279754638672	0.029776899337768555	1.03927001953125	-0.05130300140380859	0.02698200035095215	1.0812900390625	-0.04007870101928711	0.04110720062255859	1.0755899658203125	-0.04141320037841797	0.053641399383544924	1.0615400390625	-0.0722573013305664	0.046892398834228514	1.05527001953125	-0.07944090270996093	0.002150130033493042	1.114300048828125
3	0.1	-0.03427030181884766	-0.08680159759521484	1.036239990234375	-0.032853900909423826	-0.06169800186157227	1.046800048828125	-0.03813850021362305	-0.039807300567626956	1.06781005859375	-0.0475984001159668	-0.007453569889068603	1.09097998046875	-0.024750900268554688	-0.001623399972915649	1.0585	-0.016617599487304686	0.0029059500694274903	1.041030029296875	-0.017653499603271484	0.003717570066452026	1.0177000122070312	-0.05017879867553711	-0.014072999954223633	1.0296600341796875	-0.038494098663330076	0.004585010051727295	1.070969970703125	-0.025959299087524413	0.015729299545288088	1.059530029296875	-0.01954949951171875	0.023877500534057617	1.0335999755859375	-0.058145999908447266	0.008867540359497071	1.0281800537109376	-0.04855699920654297	0.014666600227355957	1.07893994140625	-0.03455820083618164	0.02794980049133301	1.0691800537109375	-0.029037099838256836	0.04103070068359375	1.0471500244140626	-0.06678759765625	0.029643999099731446	1.03918994140625	-0.051529300689697265	0.027070199966430664	1.080780029296875	-0.04012469863891602	0.04112099838256836	1.0753800048828126	-0.041714698791503906	0.05367679977416992	1.0615699462890624	-0.0724894027709961	0.046788398742675784	1.0550799560546875	-0.07932820129394531	0.002012680053710937	1.11422998046875
